<?xml version="1.0" encoding="utf-8"?>
<!-- Generator: Adobe Illustrator 21.1.0, SVG Export Plug-In . SVG Version: 6.00 Build 0)  -->
<svg version="1.1" id="Capa_1" xmlns="http://www.w3.org/2000/svg" xmlns:xlink="http://www.w3.org/1999/xlink" x="0px" y="0px"
	 viewBox="0 0 102 82" style="enable-background:new 0 0 102 82;" xml:space="preserve">
<style type="text/css">
	.st0{fill:#FFFFFF;}
</style>
<g>
	<path class="st0" d="M82.8,63.3c-3,0.3-5.6,0.5-8,0.7c0,0.5,0,0.8,0,0.8c0,2.3,0,6.4,2.2,6.4h7.8c2.2,0,2.2-4.1,2.2-6.4l0.1-4.2
		C86,62.1,84.6,63.1,82.8,63.3z"/>
	<path class="st0" d="M88.3,32.7c-0.3-1.8-1.1-3.2-2.9-2.9l-4.5,0.9l-5.3-12.6l-0.8-0.3c-5.1-2.1-12.4-3.2-20.8-3.2
		c-0.4,0-0.9,0-1.3,0c-0.4,0-0.9,0-1.3,0c-8.4,0-15.7,1.1-20.8,3.2l-0.8,0.3l-5.3,12.7L20,29.9c-1.8-0.3-2.6,1.1-2.9,2.9
		c-0.3,1.8-0.2,3.4,1.6,3.7l2.6,0.5l-1.1,2l0,0c-1.2,2.3-1.8,4.9-1.9,6.9c-0.1,2.2,0.4,7.3,0.5,9.8c0.1,2.2,1.5,5.2,4,5.4
		c7,0.7,12.4,1.2,16.9,1.5l0,0c0.7,0.1,1.3,0.1,2,0.1c4.1,0.3,7.6,0.4,11,0.4c3.5,0,6.9-0.1,11-0.4c0.6,0,1.3-0.1,2-0.1l0,0
		c4.5-0.3,9.9-0.9,16.9-1.5c2.5-0.2,3.9-3.2,4-5.4c0.1-2.4,0.6-7.6,0.5-9.8c-0.1-2-0.7-4.7-1.9-6.9l0,0l-1-2l2.5-0.5
		C88.5,36.1,88.7,34.6,88.3,32.7z M55.6,30.6c-1,0-1.9,0-2.9,0s-1.9,0-2.9,0c-4.6,0-14.5,0.2-21.3,1.6l4.7-10.8
		c5.2-1.6,12.3-2.6,19.5-2.7c7.2,0.1,14.3,1.1,19.5,2.7l4.7,10.8C70.1,30.8,60.3,30.6,55.6,30.6z M26.1,53c-2.6,0-4.8-2.1-4.8-4.8
		c0-2.6,2.1-4.8,4.8-4.8c2.6,0,4.8,2.1,4.8,4.8C30.9,50.8,28.8,53,26.1,53z M63.5,60.1H42.1v-4.5h0.8h19.7h0.8L63.5,60.1L63.5,60.1z
		 M69,52.4l-5.7,0.1h-1.4l0,0h-3.4c-1.7,0-3.5,0-5.2,0c-0.2,0-0.4,0-0.6,0c-0.2,0-0.4,0-0.6,0c-1.7,0-3.5,0-5.2,0h-3.4l0,0h-1.4
		l-5.7-0.1c-0.5-1.5-0.9-2.8-1.3-3.8c2.3,0.3,4.6,0.5,6.9,0.7c1.8,0.1,3.7,0.2,5.5,0.3c0.9,0,1.9,0,2.8,0l0,0c0.7,0,1.3,0,2,0
		c0.1,0,0.2,0,0.4,0c0.1,0,0.2,0,0.4,0c0.6,0,1.3,0,2,0l0,0c0.9,0,1.9,0,2.8,0c1.8-0.1,3.7-0.1,5.5-0.3c2.3-0.2,4.6-0.4,6.9-0.7
		C70,49.6,69.5,50.9,69,52.4z M70.4,47.3l-7.1,0.1h-5.5c-0.8,0-1.6,0-2.5,0l0,0c-0.7,0-1.4,0-2.1,0c-0.2,0-0.3,0-0.5,0s-0.3,0-0.5,0
		c-0.7,0-1.4,0-2.1,0l0,0c-0.8,0-1.6,0-2.5,0h-5.5L35,47.3c-1.1-3.4-1.2-3.6-1.2-3.6h13h11.8h13C71.6,43.8,71.6,43.9,70.4,47.3z
		 M79.4,53c-2.6,0-4.8-2.1-4.8-4.8c0-2.6,2.1-4.8,4.8-4.8c2.6,0,4.8,2.1,4.8,4.8C84.2,50.8,82,53,79.4,53z"/>
	<path class="st0" d="M22.7,63.3c-1.7-0.2-3.1-1.2-4.1-2.7l0.1,4.2c0,2.3,0,6.4,2.2,6.4h7.8c2.2,0,2.2-4.1,2.2-6.4c0,0,0-0.3,0-0.8
		C28.3,63.8,25.6,63.6,22.7,63.3z"/>
</g>
</svg>
