<?xml version="1.0" encoding="utf-8"?>
<!-- Generator: Adobe Illustrator 21.1.0, SVG Export Plug-In . SVG Version: 6.00 Build 0)  -->
<svg version="1.1" id="Capa_1" xmlns="http://www.w3.org/2000/svg" xmlns:xlink="http://www.w3.org/1999/xlink" x="0px" y="0px"
	 viewBox="0 0 99 101" style="enable-background:new 0 0 99 101;" xml:space="preserve">
<style type="text/css">
	.st0{fill:#FFFFFF;}
</style>
<path class="st0" d="M66.4,48.8c-1.4-1.4-5-7.3-4.6-11.5c0.8-8.5-1.8-15.9-7.7-21.8c-6.1-6.1-14-8.8-16.6-9.4
	c-0.5-0.1-1,0.1-1.3,0.5c-0.3,0.4-0.3,1,0,1.4l0.1,0.1c0,0,0.1,0.1,0.1,0.1l8.5,15.4c0.9,1.7,0.9,3.8,0,6c-1,2.2-2.9,4.2-5.3,5.5
	l-4.5,2.5c-4.2,2.3-9,2.1-11.6-0.4c-0.4-0.4-0.7-0.8-1-1.3l-8.4-15.3c-0.3-0.5-0.8-0.7-1.3-0.6c-0.5,0.1-0.9,0.5-1,1
	c-0.1,0.6-0.2,1.1-0.3,1.5c-0.6,2.6-0.9,4-1.2,8.2c-0.4,5.8,0.4,14.2,7,20.8c6.6,6.6,12.7,7,18.1,7.3c1,0.1,1.9,0.1,2.9,0.2
	c5.7,0.5,12,4.5,12.8,5.3l22.3,22.3c0.1,0,0.2-0.1,0.2-0.1c6-4,11.3-9.2,15.4-15.2L66.4,48.8z"/>
</svg>
