<?xml version="1.0" encoding="utf-8"?>
<!-- Generator: Adobe Illustrator 21.1.0, SVG Export Plug-In . SVG Version: 6.00 Build 0)  -->
<svg version="1.1" id="Capa_1" xmlns="http://www.w3.org/2000/svg" xmlns:xlink="http://www.w3.org/1999/xlink" x="0px" y="0px"
	 viewBox="0 0 690 600" style="enable-background:new 0 0 690 600;" xml:space="preserve">
<style type="text/css">
	.st0{fill:#FFFFFF;}
</style>
<g>
	<path class="st0" d="M637,202.2c-14.7-14.8-29.4-29.5-44.2-44.2c-11.2-11.2-24.8-11.2-36.1,0.1c-4.3,4.3-8.5,8.7-12.7,13
		c-1.1-2.2-1.1-3.8-1.1-5.4c0-16,0-32,0-48c-0.1-15.2-9.8-25-25-25.2c-12.2-0.1-24.3,0-36.5,0c-3.1,0-6.3,0-10,0
		c0-4.3,0.1-8.1,0-11.9c-0.2-14.1-9.8-24.1-23.9-24.1c-65.8-0.1-131.7-0.1-197.5,0c-14.7,0-24.2,9.8-24.6,24.6
		c-0.1,3.6,0,7.2,0,11.5c-16.1,0-31.2-0.1-46.4,0s-25,10-25,25.2c0,133.8,0,267.7,0,401.5c0,16.7,9.3,26,26,26
		c112.5,0,225,0,337.5,0c2.6,0,5.4-0.1,7.9-0.8c11.1-3,17.4-12.1,17.4-24.9c0-60.5,0-121-0.1-181.5c0-3.6,0.9-6.2,3.5-8.7
		c30.3-30.1,60.4-60.3,90.5-90.5C648.4,227.1,648.5,213.7,637,202.2z M264.5,89.2c44.5,0.2,89,0.1,133.4,0.1c11.5,0,23,0,34.5,0
		c1.8,0,3.6,0,5.6,0c0,15.4,0,30.2,0,45.2c-59.8,0-119.4,0-179.4,0c-0.1-1.8-0.2-3.6-0.2-5.4c0-11.2,0.2-22.3-0.1-33.5
		C258.1,90.8,259.2,89.1,264.5,89.2z M509.5,511.7c-107.3,0-214.6,0-322.2,0c0-128.5,0-256.9,0-385.8c12.5,0,25,0,38.1,0
		c0,5.5,0,10.8,0,16.1c0.1,16.1,9.7,25.9,25.8,25.9c64.7,0,129.3,0,194,0c16.7,0,26-9.3,26.2-25.9c0-5.3,0-10.6,0-16.2
		c13,0,25.4,0,38.2,0c0.1,1.8,0.3,3.4,0.3,5c0,22.7-0.1,45.3,0.1,68c0,4.3-1.2,7.4-4.3,10.5C451.7,263,397.9,316.9,344,370.7
		c-6.6,6.6-11.6,14-15.3,22.6c-12,27.8-24.3,55.5-36,83.4c-1.8,4.4-2.8,9.8-2.1,14.4c2,11.7,14.3,17.3,26.2,12.5
		c10.8-4.4,21.4-9.2,32.1-13.9c18-7.8,36.2-15.3,53.9-23.7c7.5-3.6,14.9-8.4,20.8-14.2c27.4-26.8,54.3-54.1,81.4-81.2
		c1.3-1.3,2.6-2.5,4.5-4.3C509.5,415.2,509.5,463.2,509.5,511.7z M604.4,224.5C536.9,292,469.4,359.6,401.8,427
		c-3.9,3.9-8.8,7.2-13.8,9.5c-15.2,7.1-30.7,13.5-46.2,20.2c-1.5,0.6-3,1.2-5.2,2c0.6-1.8,0.9-3,1.4-4.1c7.1-16.5,14.2-33,21.6-49.4
		c1.5-3.4,3.6-6.9,6.2-9.5c68.9-69.1,138-138.1,207-207.2c0.5-0.5,1-0.9,1.4-1.3c11.3,11.3,22.4,22.3,34.4,34.2
		C607.4,222.4,605.7,223.2,604.4,224.5z"/>
	<path class="st0" d="M234.5,228.2c37.5,0,75,0,112.4,0l0,0c17.8,0,35.6,0,53.5,0c20.7,0,41.3,0,62,0c6.5,0,8.7-2.3,8.7-8.7
		c0.1-4.5,0-9,0-13.5c0-9-1.8-10.8-10.8-10.8c-55.5,0-110.9,0-166.4,0c-20.2,0-40.3,0-60.5,0c-7.3,0-9.4,2.3-9.5,9.6
		c0,4.3,0,8.7,0,13C224,226.6,225.6,228.2,234.5,228.2z"/>
	<path class="st0" d="M368.2,281.9c-22.5,0-45,0-67.4,0l0,0c-22.1,0-44.3,0-66.4,0c-8.6,0-10.3,1.7-10.4,10.6c0,4.5,0,9,0,13.5
		c0,6.3,2.4,8.9,8.7,8.9c45.6,0,91.2,0,136.9,0c5.9,0,8.3-2.6,8.4-8.7c0.1-4.8,0-9.7,0-14.5C377.9,284.1,375.7,281.9,368.2,281.9z"
		/>
	<path class="st0" d="M309.9,393.3c0.1-5.7,0.1-11.3,0-17c-0.1-5.1-2.6-7.9-7.6-7.9c-23.6-0.1-47.3-0.1-70.9,0c-5,0-7.3,2.8-7.4,8.1
		c-0.1,5.3-0.1,10.7,0,16c0,6.7,2.2,8.8,9.1,8.8c11.2,0,22.3,0,33.5,0c11.8,0,23.6,0.1,35.4,0C307.4,401.2,309.8,398.7,309.9,393.3z
		"/>
</g>
</svg>
