<?xml version="1.0" encoding="utf-8"?>
<!-- Generator: Adobe Illustrator 21.1.0, SVG Export Plug-In . SVG Version: 6.00 Build 0)  -->
<svg version="1.1" id="Capa_1" xmlns="http://www.w3.org/2000/svg" xmlns:xlink="http://www.w3.org/1999/xlink" x="0px" y="0px"
	 viewBox="0 0 107 94" style="enable-background:new 0 0 107 94;" xml:space="preserve">
<style type="text/css">
	.st0{fill:#FFFFFF;}
</style>
<g>
	<path class="st0" d="M93,15.7h-3c0,0-3.5-0.8-2.2-2.6l-0.7-3.7c0,0-0.8-2.3-3.2,0l-8.8,8.3l0.3,5.1L51.3,46.9c0,0-3,1.8-0.9,5.7
		c0,0,2.4,3,5.3,0.2L80.1,27l4.7,0.3l9.3-9C94.2,18.3,95.8,16.5,93,15.7z"/>
	<path class="st0" d="M50.9,41.9l5.7-6.3c-1.2-0.3-2.4-0.5-3.7-0.5c-8.3,0-15.1,6.8-15.1,15.1s6.8,15.1,15.1,15.1S68,58.5,68,50.2
		c0-1.5-0.2-2.9-0.6-4.3l-6,5.3c-0.5,4.2-4.1,7.5-8.5,7.5c-4.7,0-8.6-3.8-8.6-8.6C44.3,46.2,47.1,42.8,50.9,41.9z"/>
	<path class="st0" d="M64.4,27c-3.5-1.7-7.4-2.7-11.6-2.7c-14.3,0-25.9,11.6-25.9,25.9s11.6,25.9,25.9,25.9s25.9-11.6,25.9-25.9
		c0-4.3-1.1-8.4-2.9-11.9l-5.1,4.5c1,2.3,1.5,4.8,1.5,7.4c0,10.7-8.7,19.4-19.4,19.4s-19.4-8.7-19.4-19.4s8.7-19.4,19.4-19.4
		c2.4,0,4.8,0.5,6.9,1.3L64.4,27z"/>
	<path class="st0" d="M79.5,35c2.6,4.5,4,9.7,4,15.2c0,16.9-13.8,30.7-30.7,30.7S22.1,67.1,22.1,50.2s13.8-30.7,30.7-30.7
		c5.4,0,10.4,1.4,14.8,3.8l4.5-4.9C66.5,15,59.9,13,52.8,13c-20.5,0-37.2,16.7-37.2,37.2s16.7,37.2,37.2,37.2S90,70.7,90,50.2
		c0-7.2-2.1-13.9-5.6-19.6L79.5,35z"/>
</g>
</svg>
