<?xml version="1.0" encoding="utf-8"?>
<!-- Generator: Adobe Illustrator 21.1.0, SVG Export Plug-In . SVG Version: 6.00 Build 0)  -->
<svg version="1.1" id="Layer_1" xmlns="http://www.w3.org/2000/svg" xmlns:xlink="http://www.w3.org/1999/xlink" x="0px" y="0px"
	 viewBox="0 0 167 42" style="enable-background:new 0 0 167 42;" xml:space="preserve">
<style type="text/css">
	.st0{fill:#FFFFFF;}
</style>
<g>
	<g>
		<g>
			<path class="st0" d="M93.8,6.3c-1.4,0-2.4,0.5-3.6,2.1l-14,19L70.8,8.8c-0.5-1.9-1.8-2.5-2.9-2.5c-1.7,0-2.6,0.7-3.5,2.3
				L52.1,33.4H59l8.4-17.1l5.2,17.1h5.8l12.6-17l-0.1,17h5.9L96.7,9.6C96.8,7.3,95.3,6.3,93.8,6.3z"/>
			<polygon class="st0" points="43.8,10.7 38.2,33.4 44.5,33.4 50,10.7 			"/>
			<path class="st0" d="M33,17.2c0.3-3-1.4-6.5-7.7-6.5H13.1L7.6,33.4h6.3l2.1-8.5h3.2l5.5,8.5h6.8l-6.2-9
				C30.8,23,32.7,20.2,33,17.2z M21.3,21h-4.5l1.7-6.8h4.7c2.5,0,3.8,1.2,3.6,3.3C26.6,19.7,24.4,21,21.3,21z"/>
			<path class="st0" d="M122.8,33.4h6l-5.7-20.9c-0.7-2.4-2.2-3-3.8-2.9c-1,0.1-2,0.5-3,1.9l-15,21.9h6.1l3-4.6h11.2L122.8,33.4z
				 M113.1,25l5.5-8.3l2.1,8.3H113.1z"/>
			<path class="st0" d="M147.9,29.2c-5.1-0.1-8-2.9-7.6-6.6c0.6-4.9,5-7.9,11.3-7.9c1.8,0,4.2,0.1,6.4,0.7l1.1-4.5
				c-1.8-0.4-4.8-0.8-6.8-0.8c-10.8,0-17.6,5-18.4,12.3c-0.7,6.5,3.9,11.3,13.9,11.3c2,0,3.8-0.2,6.2-0.6l1.2-5
				C152.8,28.9,150.9,29.2,147.9,29.2z"/>
		</g>
	</g>
</g>
</svg>
