<?xml version="1.0" encoding="utf-8"?>
<!-- Generator: Adobe Illustrator 21.1.0, SVG Export Plug-In . SVG Version: 6.00 Build 0)  -->
<svg version="1.1" id="Capa_1" xmlns="http://www.w3.org/2000/svg" xmlns:xlink="http://www.w3.org/1999/xlink" x="0px" y="0px"
	 viewBox="0 0 114 122" style="enable-background:new 0 0 114 122;" xml:space="preserve">
<style type="text/css">
	.st0{fill:#FFFFFF;}
</style>
<path class="st0" d="M53.5,110.9c-7.6-0.1-15.2-0.3-22.8-1.5c-4.6-0.7-9.2-1.7-13.3-3.9c-1.4-0.8-2.7-1.7-3.8-2.8
	c-1.6-1.5-2.4-3.5-2.4-5.7c0-1.7,0-3.5,0.4-5.1c0.8-3.2,3.1-5.4,5.4-7.4c3.8-3.3,8.2-5.8,12.7-7.9c2.9-1.4,5.8-2.5,8.8-3.7
	c4.2-1.7,5.5-7,2.5-10.4c-5.7-6.4-9-13.9-10-22.3c-0.7-5.3-0.2-10.5,2.1-15.5c2.9-6.3,7.8-10.2,14.5-11.8c7-1.6,13.6-0.6,19.5,3.6
	c4.6,3.3,7.2,7.9,8.3,13.4c1.1,5.5,0.7,10.9-0.8,16.3c-1.8,6.1-4.7,11.6-8.9,16.4c-1.7,1.9-2,6.5-0.5,8.5c0.6,0.8,1.5,1.4,2.4,1.7
	c5.6,2.1,11.2,4.3,16.3,7.4c3.2,2,6.3,4.2,8.8,7.1c1.9,2.3,3.1,4.8,2.9,7.8c-0.1,1.4,0,2.8-0.3,4.2c-0.8,3.1-3.1,4.9-5.8,6.3
	c-4.1,2.2-8.6,3.2-13.2,3.9C68.8,110.6,61.2,110.8,53.5,110.9z"/>
</svg>
